<?xml version="1.0"?>
<svg xmlns="http://www.w3.org/2000/svg" xmlns:xlink="http://www.w3.org/1999/xlink" version="1.1" id="Capa_1" x="0px" y="0px" viewBox="0 0 423.253 423.253" style="enable-background:new 0 0 423.253 423.253;" xml:space="preserve" width="512px" height="512px"><g><g>
	<g>
		<path d="M266.3,68.267H156.954c-11.261,0-20.42,9.16-20.42,20.417v122.943c0,3.77,3.053,6.827,6.827,6.827h136.533    c3.773,0,6.827-3.057,6.827-6.827V88.683C286.72,77.426,277.56,68.267,266.3,68.267z M273.067,204.8h-122.88V88.683    c0-3.731,3.033-6.763,6.767-6.763H266.3c3.734,0,6.767,3.033,6.767,6.763V204.8z" data-original="#000000" class="active-path" data-old_color="#000000" fill="#FDCD5C"/>
	</g>
</g><g>
	<g>
		<path d="M143.36,204.8H20.42C9.16,204.8,0,213.96,0,225.217v109.35c0,11.261,9.16,20.42,20.42,20.42h122.94    c3.773,0,6.827-3.057,6.827-6.827V211.627C150.187,207.857,147.133,204.8,143.36,204.8z M136.533,341.333H20.42    c-3.734,0-6.767-3.036-6.767-6.767v-109.35c0-3.731,3.033-6.764,6.767-6.764h116.113V341.333z" data-original="#000000" class="active-path" data-old_color="#000000" fill="#FDCD5C"/>
	</g>
</g><g>
	<g>
		<path d="M402.833,204.8h-122.94c-3.773,0-6.827,3.057-6.827,6.827V348.16c0,3.77,3.053,6.827,6.827,6.827h122.94    c11.261,0,20.42-9.16,20.42-20.417V225.217C423.253,213.96,414.094,204.8,402.833,204.8z M409.6,334.57    c0,3.731-3.033,6.763-6.767,6.763H286.72v-122.88h116.113c3.734,0,6.767,3.033,6.767,6.763V334.57z" data-original="#000000" class="active-path" data-old_color="#000000" fill="#FDCD5C"/>
	</g>
</g><g>
	<g>
		<path d="M279.893,204.8H143.36c-3.773,0-6.827,3.057-6.827,6.827V348.16c0,3.77,3.053,6.827,6.827,6.827h136.533    c3.773,0,6.827-3.057,6.827-6.827V211.627C286.72,207.857,283.667,204.8,279.893,204.8z M273.067,341.333h-122.88v-122.88h122.88    V341.333z" data-original="#000000" class="active-path" data-old_color="#000000" fill="#FDCD5C"/>
	</g>
</g><g>
	<g>
		<path d="M251.313,139.394L217.18,91.607c-2.56-3.593-8.547-3.593-11.107,0l-34.133,47.787c-1.487,2.079-1.688,4.816-0.521,7.09    c1.174,2.273,3.514,3.703,6.074,3.703h13.653v40.96c0,3.77,3.053,6.827,6.827,6.827h27.307c3.773,0,6.827-3.057,6.827-6.827    v-40.96h13.653c2.56,0,4.9-1.43,6.074-3.703C253,144.21,252.8,141.474,251.313,139.394z M225.28,136.533    c-3.773,0-6.827,3.057-6.827,6.827v40.96H204.8v-40.96c0-3.77-3.053-6.827-6.827-6.827h-7.214l20.867-29.213l20.867,29.213H225.28    z" data-original="#000000" class="active-path" data-old_color="#000000" fill="#FDCD5C"/>
	</g>
</g><g>
	<g>
		<path d="M122.88,259.413H81.92V245.76c0-2.557-1.427-4.9-3.7-6.071c-2.287-1.172-5.019-0.969-7.093,0.514L23.34,274.336    c-1.794,1.283-2.86,3.354-2.86,5.557s1.067,4.273,2.86,5.557l47.787,34.133c1.179,0.84,2.567,1.27,3.966,1.27    c1.067,0,2.14-0.249,3.127-0.756c2.273-1.171,3.7-3.514,3.7-6.071v-13.653h40.96c3.773,0,6.827-3.057,6.827-6.827V266.24    C129.707,262.47,126.653,259.413,122.88,259.413z M116.053,286.72h-40.96c-3.773,0-6.827,3.057-6.827,6.827v7.214l-29.213-20.867    l29.213-20.867v7.214c0,3.77,3.053,6.827,6.827,6.827h40.96V286.72z" data-original="#000000" class="active-path" data-old_color="#000000" fill="#FDCD5C"/>
	</g>
</g><g>
	<g>
		<path d="M399.913,274.336l-47.787-34.133c-2.086-1.483-4.813-1.688-7.093-0.514c-2.273,1.171-3.7,3.514-3.7,6.071v13.653h-40.96    c-3.773,0-6.827,3.057-6.827,6.827v27.307c0,3.77,3.053,6.827,6.827,6.827h40.96v13.653c0,2.557,1.427,4.9,3.7,6.071    c0.986,0.507,2.06,0.756,3.127,0.756c1.399,0,2.787-0.43,3.966-1.27l47.787-34.133c1.794-1.283,2.86-3.354,2.86-5.557    S401.707,275.62,399.913,274.336z M354.987,300.761v-7.214c0-3.77-3.053-6.827-6.827-6.827H307.2v-13.653h40.96    c3.773,0,6.827-3.057,6.827-6.827v-7.214l29.213,20.867L354.987,300.761z" data-original="#000000" class="active-path" data-old_color="#000000" fill="#FDCD5C"/>
	</g>
</g><g>
	<g>
		<path d="M251.834,276.77c-1.174-2.273-3.514-3.703-6.074-3.703h-13.653v-40.96c0-3.77-3.053-6.827-6.827-6.827h-27.307    c-3.773,0-6.827,3.057-6.827,6.827v40.96h-13.653c-2.56,0-4.9,1.43-6.074,3.703c-1.166,2.273-0.966,5.009,0.521,7.089    l34.133,47.787c1.28,1.797,3.347,2.86,5.553,2.86s4.273-1.063,5.554-2.86l34.133-47.787    C252.8,281.781,253.001,279.043,251.834,276.77z M211.627,315.933l-20.867-29.213h7.214c3.773,0,6.827-3.057,6.827-6.827v-40.96    h13.653v40.96c0,3.77,3.053,6.827,6.827,6.827h7.214L211.627,315.933z" data-original="#000000" class="active-path" data-old_color="#000000" fill="#FDCD5C"/>
	</g>
</g></g> </svg>
